<svg width="16" height="16" viewBox="0 0 16 16" fill="none" xmlns="http://www.w3.org/2000/svg">
<g clip-path="url(#clip0_0_47)">
<path d="M4.61249 7.1001C3.93874 7.1001 3.38749 7.65135 3.38749 8.3251C3.38749 8.99885 3.93874 9.5501 4.61249 9.5501C5.28624 9.5501 5.83749 8.99885 5.83749 8.3251C5.83749 7.65135 5.28624 7.1001 4.61249 7.1001ZM11.9625 7.1001C11.2887 7.1001 10.7375 7.65135 10.7375 8.3251C10.7375 8.99885 11.2887 9.5501 11.9625 9.5501C12.6362 9.5501 13.1875 8.99885 13.1875 8.3251C13.1875 7.65135 12.6362 7.1001 11.9625 7.1001ZM8.28749 7.1001C7.61374 7.1001 7.06249 7.65135 7.06249 8.3251C7.06249 8.99885 7.61374 9.5501 8.28749 9.5501C8.96124 9.5501 9.51249 8.99885 9.51249 8.3251C9.51249 7.65135 8.96124 7.1001 8.28749 7.1001Z" fill="#393939"/>
</g>
<defs>
<clipPath id="clip0_0_47">
<rect width="14.7" height="14.7" fill="white" transform="translate(0.9375 0.975006)"/>
</clipPath>
</defs>
</svg>
