<svg width="15" height="16" viewBox="0 0 15 16" fill="none" xmlns="http://www.w3.org/2000/svg">
<g clip-path="url(#clip0_0_367)">
<path d="M7.35001 1.97501C10.7328 1.97501 13.475 4.71717 13.475 8.10001C13.475 11.4828 10.7328 14.225 7.35001 14.225C3.96717 14.225 1.22501 11.4828 1.22501 8.10001C1.22501 4.71717 3.96717 1.97501 7.35001 1.97501ZM7.35001 3.81251C4.98208 3.81251 3.06251 5.73208 3.06251 8.10001C3.06251 9.23436 3.50351 10.2664 4.22258 11.0333L4.31813 11.1313L5.18421 10.2658C4.63051 9.71088 4.28751 8.94526 4.28751 8.10001C4.28751 6.40889 5.65889 5.03751 7.35001 5.03751C7.62441 5.03751 7.89023 5.07364 8.14319 5.14163L9.10053 4.18491C8.56582 3.94603 7.97353 3.81251 7.35001 3.81251ZM11.2651 6.35009L10.309 7.30682C10.3764 7.55978 10.4125 7.82561 10.4125 8.10001C10.4125 8.94526 10.0695 9.71088 9.51581 10.2658L10.3819 11.1319C11.1573 10.3558 11.6375 9.28397 11.6375 8.10001C11.6375 7.47648 11.5046 6.88419 11.2651 6.35009ZM9.94823 4.63509L7.66667 6.91604C7.56561 6.88909 7.45964 6.87501 7.35001 6.87501C6.67319 6.87501 6.12501 7.42319 6.12501 8.10001C6.12501 8.77682 6.67319 9.32501 7.35001 9.32501C8.02682 9.32501 8.57501 8.77682 8.57501 8.10001C8.57501 7.99037 8.56092 7.88441 8.53397 7.78334L10.8149 5.50117L9.94884 4.63509H9.94823Z" fill="#7942FB"/>
</g>
<defs>
<clipPath id="clip0_0_367">
<rect width="14.7" height="14.7" fill="white" transform="translate(0 0.75)"/>
</clipPath>
</defs>
</svg>
