<svg width="16" height="16" viewBox="0 0 16 16" fill="none" xmlns="http://www.w3.org/2000/svg">
<g clip-path="url(#clip0_0_27)">
<path d="M8.07504 13.8501C4.69221 13.8501 1.95004 11.1079 1.95004 7.72507C1.95004 4.98229 3.75263 2.66092 6.23754 1.88059V3.18154C5.18461 3.60909 4.31294 4.38921 3.77165 5.38845C3.23036 6.38769 3.05308 7.54396 3.27014 8.65946C3.48719 9.77497 4.08509 10.7804 4.96156 11.5038C5.83803 12.2272 6.93861 12.6235 8.07504 12.6251C9.05123 12.625 10.0052 12.3335 10.8147 11.7879C11.6241 11.2423 12.2523 10.4674 12.6186 9.56257H13.9195C13.1392 12.0475 10.8178 13.8501 8.07504 13.8501ZM14.1694 8.33757H7.46254V1.63069C7.66406 1.61048 7.86863 1.60007 8.07504 1.60007C11.4579 1.60007 14.2 4.34223 14.2 7.72507C14.2 7.93148 14.1896 8.13605 14.1694 8.33757ZM8.68754 2.86304V7.11257H12.9371C12.8007 6.0331 12.3092 5.02966 11.5398 4.2603C10.7704 3.49094 9.76701 2.99938 8.68754 2.86304Z" fill="#959595"/>
</g>
<defs>
<clipPath id="clip0_0_27">
<rect width="14.7" height="14.7" fill="white" transform="translate(0.724976 0.375)"/>
</clipPath>
</defs>
</svg>
