<svg width="16" height="15" viewBox="0 0 16 15" fill="none" xmlns="http://www.w3.org/2000/svg">
<g clip-path="url(#clip0_0_30)">
<path d="M12.3624 13.1376H3.78743C3.62499 13.1376 3.4692 13.073 3.35433 12.9582C3.23946 12.8433 3.17493 12.6875 3.17493 12.5251V7.01257H1.33743L7.66272 1.26242C7.77549 1.15981 7.92247 1.10295 8.07493 1.10295C8.2274 1.10295 8.37438 1.15981 8.48715 1.26242L14.8124 7.01257H12.9749V12.5251C12.9749 12.6875 12.9104 12.8433 12.7955 12.9582C12.6807 13.073 12.5249 13.1376 12.3624 13.1376ZM4.39993 11.9126H11.7499V5.88373L8.07493 2.54316L4.39993 5.88373V11.9126ZM8.07493 9.46257C7.66882 9.46257 7.27934 9.30124 6.99218 9.01408C6.70501 8.72691 6.54368 8.33743 6.54368 7.93132C6.54368 7.52521 6.70501 7.13573 6.99218 6.84856C7.27934 6.5614 7.66882 6.40007 8.07493 6.40007C8.48105 6.40007 8.87053 6.5614 9.15769 6.84856C9.44486 7.13573 9.60618 7.52521 9.60618 7.93132C9.60618 8.33743 9.44486 8.72691 9.15769 9.01408C8.87053 9.30124 8.48105 9.46257 8.07493 9.46257Z" fill="#959595"/>
</g>
<defs>
<clipPath id="clip0_0_30">
<rect width="14.7" height="14.7" fill="white" transform="translate(0.724976 0.275024)"/>
</clipPath>
</defs>
</svg>
