<svg width="67" height="67" viewBox="0 0 67 67" fill="none" xmlns="http://www.w3.org/2000/svg">
<g filter="url(#filter0_d_0_96)">
<rect x="16.45" y="14.275" width="29.4" height="29.4" rx="2.45" fill="#ED5B75"/>
</g>
<g clip-path="url(#clip0_0_96)">
<path d="M31.1498 35.1001C27.767 35.1001 25.0248 32.3579 25.0248 28.9751C25.0248 25.5923 27.767 22.8501 31.1498 22.8501C34.5326 22.8501 37.2748 25.5923 37.2748 28.9751C37.2748 32.3579 34.5326 35.1001 31.1498 35.1001ZM31.1498 33.8751C32.4494 33.8751 33.6957 33.3588 34.6146 32.4399C35.5336 31.521 36.0498 30.2747 36.0498 28.9751C36.0498 27.6755 35.5336 26.4292 34.6146 25.5103C33.6957 24.5913 32.4494 24.0751 31.1498 24.0751C29.8503 24.0751 28.6039 24.5913 27.685 25.5103C26.7661 26.4292 26.2498 27.6755 26.2498 28.9751C26.2498 30.2747 26.7661 31.521 27.685 32.4399C28.6039 33.3588 29.8503 33.8751 31.1498 33.8751ZM29.0061 30.2001H32.3748C32.456 30.2001 32.5339 30.1678 32.5914 30.1104C32.6488 30.053 32.6811 29.9751 32.6811 29.8938C32.6811 29.8126 32.6488 29.7347 32.5914 29.6773C32.5339 29.6199 32.456 29.5876 32.3748 29.5876H29.9248C29.5187 29.5876 29.1292 29.4263 28.8421 29.1391C28.5549 28.8519 28.3936 28.4625 28.3936 28.0563C28.3936 27.6502 28.5549 27.2607 28.8421 26.9736C29.1292 26.6864 29.5187 26.5251 29.9248 26.5251H30.5373V25.3001H31.7623V26.5251H33.2936V27.7501H29.9248C29.8436 27.7501 29.7657 27.7824 29.7083 27.8398C29.6508 27.8972 29.6186 27.9751 29.6186 28.0563C29.6186 28.1376 29.6508 28.2155 29.7083 28.2729C29.7657 28.3303 29.8436 28.3626 29.9248 28.3626H32.3748C32.7809 28.3626 33.1704 28.5239 33.4576 28.8111C33.7447 29.0982 33.9061 29.4877 33.9061 29.8938C33.9061 30.3 33.7447 30.6894 33.4576 30.9766C33.1704 31.2638 32.7809 31.4251 32.3748 31.4251H31.7623V32.6501H30.5373V31.4251H29.0061V30.2001Z" fill="white"/>
</g>
<defs>
<filter id="filter0_d_0_96" x="0.524997" y="0.799971" width="66.15" height="66.15" filterUnits="userSpaceOnUse" color-interpolation-filters="sRGB">
<feFlood flood-opacity="0" result="BackgroundImageFix"/>
<feColorMatrix in="SourceAlpha" type="matrix" values="0 0 0 0 0 0 0 0 0 0 0 0 0 0 0 0 0 0 127 0" result="hardAlpha"/>
<feOffset dx="2.45" dy="4.9"/>
<feGaussianBlur stdDeviation="9.1875"/>
<feComposite in2="hardAlpha" operator="out"/>
<feColorMatrix type="matrix" values="0 0 0 0 0.929412 0 0 0 0 0.356863 0 0 0 0 0.458824 0 0 0 0.35 0"/>
<feBlend mode="normal" in2="BackgroundImageFix" result="effect1_dropShadow_0_96"/>
<feBlend mode="normal" in="SourceGraphic" in2="effect1_dropShadow_0_96" result="shape"/>
</filter>
<clipPath id="clip0_0_96">
<rect width="14.7" height="14.7" fill="white" transform="translate(23.7999 21.6251)"/>
</clipPath>
</defs>
</svg>
