<svg width="16" height="16" viewBox="0 0 16 16" fill="none" xmlns="http://www.w3.org/2000/svg">
<g clip-path="url(#clip0_0_24)">
<path d="M5.01254 3.53744V1.69994C5.01254 1.5375 5.07707 1.3817 5.19194 1.26684C5.30681 1.15197 5.4626 1.08744 5.62504 1.08744H10.525C10.6875 1.08744 10.8433 1.15197 10.9581 1.26684C11.073 1.3817 11.1375 1.5375 11.1375 1.69994V3.53744H13.5875C13.75 3.53744 13.9058 3.60197 14.0206 3.71684C14.1355 3.8317 14.2 3.9875 14.2 4.14994V12.7249C14.2 12.8874 14.1355 13.0432 14.0206 13.158C13.9058 13.2729 13.75 13.3374 13.5875 13.3374H2.56254C2.4001 13.3374 2.24431 13.2729 2.12944 13.158C2.01457 13.0432 1.95004 12.8874 1.95004 12.7249V4.14994C1.95004 3.9875 2.01457 3.8317 2.12944 3.71684C2.24431 3.60197 2.4001 3.53744 2.56254 3.53744H5.01254ZM6.23754 8.43744H3.17504V12.1124H12.975V8.43744H9.91254V10.2749H6.23754V8.43744ZM12.975 4.76244H3.17504V7.21244H6.23754V5.98744H9.91254V7.21244H12.975V4.76244ZM7.46254 7.21244V9.04994H8.68754V7.21244H7.46254ZM6.23754 2.31244V3.53744H9.91254V2.31244H6.23754Z" fill="#959595"/>
</g>
<defs>
<clipPath id="clip0_0_24">
<rect width="14.7" height="14.7" fill="white" transform="translate(0.724976 0.474976)"/>
</clipPath>
</defs>
</svg>
