<svg width="16" height="16" viewBox="0 0 16 16" fill="none" xmlns="http://www.w3.org/2000/svg">
<path d="M6.23754 1.18754V2.41254H9.91254V1.18754H11.1375V2.41254H13.5875C13.75 2.41254 13.9058 2.47707 14.0206 2.59194C14.1355 2.70681 14.2 2.8626 14.2 3.02504V12.825C14.2 12.9875 14.1355 13.1433 14.0206 13.2581C13.9058 13.373 13.75 13.4375 13.5875 13.4375H2.56254C2.4001 13.4375 2.24431 13.373 2.12944 13.2581C2.01457 13.1433 1.95004 12.9875 1.95004 12.825V3.02504C1.95004 2.8626 2.01457 2.70681 2.12944 2.59194C2.24431 2.47707 2.4001 2.41254 2.56254 2.41254H5.01254V1.18754H6.23754ZM12.975 5.47504H3.17504V12.2125H12.975V5.47504ZM9.93459 6.78334L10.8007 7.64942L7.76879 10.6813L5.60299 8.51549L6.47029 7.64942L7.76941 8.94914L9.9352 6.78334H9.93459Z" fill="#959595"/>
</svg>
