<svg width="67" height="67" viewBox="0 0 67 67" fill="none" xmlns="http://www.w3.org/2000/svg">
<g filter="url(#filter0_d_0_79)">
<rect x="16.45" y="14.175" width="29.4" height="29.4" rx="2.45" fill="#4FDFB1"/>
</g>
<g clip-path="url(#clip0_0_79)">
<path d="M34.2123 23.3626H36.6623C36.8248 23.3626 36.9805 23.4272 37.0954 23.542C37.2103 23.6569 37.2748 23.8127 37.2748 23.9751V33.7751C37.2748 33.9376 37.2103 34.0934 37.0954 34.2082C36.9805 34.3231 36.8248 34.3876 36.6623 34.3876H25.6373C25.4749 34.3876 25.3191 34.3231 25.2042 34.2082C25.0893 34.0934 25.0248 33.9376 25.0248 33.7751V23.9751C25.0248 23.8127 25.0893 23.6569 25.2042 23.542C25.3191 23.4272 25.4749 23.3626 25.6373 23.3626H28.0873V22.1376H29.3123V23.3626H32.9873V22.1376H34.2123V23.3626ZM26.2498 27.0376V33.1626H36.0498V27.0376H26.2498ZM27.4748 28.2626H28.6998V29.4876H27.4748V28.2626ZM30.5373 28.2626H31.7623V29.4876H30.5373V28.2626ZM33.5998 28.2626H34.8248V29.4876H33.5998V28.2626Z" fill="white"/>
</g>
<defs>
<filter id="filter0_d_0_79" x="0.524997" y="0.699987" width="66.15" height="66.15" filterUnits="userSpaceOnUse" color-interpolation-filters="sRGB">
<feFlood flood-opacity="0" result="BackgroundImageFix"/>
<feColorMatrix in="SourceAlpha" type="matrix" values="0 0 0 0 0 0 0 0 0 0 0 0 0 0 0 0 0 0 127 0" result="hardAlpha"/>
<feOffset dx="2.45" dy="4.9"/>
<feGaussianBlur stdDeviation="9.1875"/>
<feComposite in2="hardAlpha" operator="out"/>
<feColorMatrix type="matrix" values="0 0 0 0 0.309804 0 0 0 0 0.87451 0 0 0 0 0.694118 0 0 0 0.35 0"/>
<feBlend mode="normal" in2="BackgroundImageFix" result="effect1_dropShadow_0_79"/>
<feBlend mode="normal" in="SourceGraphic" in2="effect1_dropShadow_0_79" result="shape"/>
</filter>
<clipPath id="clip0_0_79">
<rect width="14.7" height="14.7" fill="white" transform="translate(23.7999 21.525)"/>
</clipPath>
</defs>
</svg>
