<svg width="13" height="14" viewBox="0 0 13 14" fill="none" xmlns="http://www.w3.org/2000/svg">
<path d="M11.325 10.1749H12.55V11.3999H0.300018V10.1749H1.52502V5.88743C1.52502 4.58787 2.04127 3.34153 2.9602 2.4226C3.87912 1.50368 5.12546 0.987427 6.42502 0.987427C7.72458 0.987427 8.97091 1.50368 9.88984 2.4226C10.8088 3.34153 11.325 4.58787 11.325 5.88743V10.1749ZM10.1 10.1749V5.88743C10.1 4.91276 9.71283 3.97801 9.02364 3.28881C8.33444 2.59961 7.39969 2.21243 6.42502 2.21243C5.45035 2.21243 4.5156 2.59961 3.8264 3.28881C3.1372 3.97801 2.75002 4.91276 2.75002 5.88743V10.1749H10.1ZM4.58752 12.6249H8.26252V13.8499H4.58752V12.6249Z" fill="black"/>
</svg>
